<svg version="1.2" xmlns="http://www.w3.org/2000/svg" viewBox="0 0 780 180" width="780" height="180"><defs><linearGradient id="P" gradientUnits="userSpaceOnUse"/><linearGradient id="g1" x2="1" href="#P" gradientTransform="matrix(57,118,-91.502,44.2,24,31)"><stop stop-color="#0b3d3f"/><stop offset="1" stop-color="#0f6b63"/></linearGradient></defs><style>tspan{white-space:pre}.a{fill:#f7f2e8}.b{fill:url(#g1)}.c{fill:#0f6b63}.d{opacity:.96;fill:#06343a}.e{fill:#c9a44a}.f{font-size: 64px;fill: #041e2b;font-family: "Georgia"}.g{font-size: 18px;fill: #0b3d3f;font-family: "Inter"}</style><path fill-rule="evenodd" class="a" d="m42 0h96c23.2 0 42 18.8 42 42v96c0 23.2-18.8 42-42 42h-96c-23.2 0-42-18.8-42-42v-96c0-23.2 18.8-42 42-42z"/><path class="b" d="m24 31h43c8 0 14 6 14 14v90c0 8-6 14-14 14h-43z"/><path class="c" d="m87.6 86.9l2.7-15.8c5-28.5 31.5-47.3 60.1-42.3l2 0.3-3.8 21.7c-4.2 24.6-27.5 41.9-53.1 37.5z"/><path class="d" d="m86 92h22c25 0 46 20 46 46v11h-68z"/><path fill-rule="evenodd" class="e" d="m152 23c-4.4 0-8-3.6-8-8 0-4.4 3.6-8 8-8 4.4 0 8 3.6 8 8 0 4.4-3.6 8-8 8z"/><text transform="translate(215,89)"><tspan x="0" y="0" class="f">KAIROX
</tspan></text><text transform="translate(219,128)"><tspan x="0" y="0" class="g">YOUR ALWAYS-ON DIGITAL WORKFORCE
</tspan></text></svg>