<svg version="1.2" xmlns="http://www.w3.org/2000/svg" viewBox="0 0 780 180" width="780" height="180">
	<style>
		tspan { white-space:pre } 
		.s0 { fill: #ffffff } 
		.s1 { fill: #f6f6f6 } 
		.s2 { opacity: .96;fill: #f7f7f6 } 
		.s3 { fill: #f7c64e } 
		.t4 { font-size: 64px;fill: #f4f6f7;font-family: "Georgia" } 
		.t5 { font-size: 21px;fill: #fcfcfa;font-family: "Inter" } 
		.t6 { font-size: 18px;fill: #fcfcfa;font-family: "Inter" } 
	</style>
	<path class="s0" d="m25 31h43c8 0 14 6 14 14v90c0 8-6 14-14 14h-43z"/>
	<path class="s1" d="m87.6 86.9l2.7-15.8c5-28.5 31.5-47.3 60.1-42.3l2 0.3-3.8 21.7c-4.2 24.6-27.5 41.9-53.1 37.5z"/>
	<path class="s2" d="m87 90h22c25 0 46 20 46 46v11h-68z"/>
	<path fill-rule="evenodd" class="s3" d="m152 23c-4.4 0-8-3.6-8-8 0-4.4 3.6-8 8-8 4.4 0 8 3.6 8 8 0 4.4-3.6 8-8 8z"/>
	<text id="KAIROX " transform="translate(215,89)">
		<tspan x="0" y="0" class="t4">KAIROX
</tspan>
	</text>
	<text id="YOUR ALWAYS-ON DIGITAL WORKFORCE" transform="translate(219,128)">
		<tspan x="0" y="0" class="t5">YOUR ALWAYS-ON DIGITAL WORKFORCE</tspan><tspan  y="0" class="t6">
</tspan>
	</text>
</svg>