<?xml version="1.0" encoding="UTF-8"?>
<svg version="1.1" xmlns="http://www.w3.org/2000/svg" width="360" height="360">
<path d="M0 0 C2.10298138 -0.00543377 4.20595894 -0.01256341 6.30892944 -0.02124023 C11.97013737 -0.03932724 17.63105059 -0.03246696 23.29226303 -0.01972389 C29.24733969 -0.00951985 35.20239294 -0.01900996 41.1574707 -0.02526855 C51.15352864 -0.03252354 61.14946794 -0.02301384 71.14550781 -0.00390625 C82.66371196 0.01785823 94.18163277 0.01080534 105.69983006 -0.01121187 C115.63074175 -0.02942729 125.5615687 -0.03189427 135.49249172 -0.0214572 C141.40557428 -0.01525593 147.31852414 -0.01429315 153.2315979 -0.02760315 C158.79358656 -0.03925082 164.35521379 -0.03097465 169.91716385 -0.00802612 C171.94507882 -0.00278631 173.97302479 -0.00417048 176.00092697 -0.01307678 C191.05298506 -0.07303361 206.30656342 0.82352701 219.82421875 8.20507812 C220.47390625 8.54539062 221.12359375 8.88570312 221.79296875 9.23632812 C238.23618993 18.12019026 250.03541963 30.65765293 258.69921875 47.08007812 C259.18068359 47.95212891 259.18068359 47.95212891 259.671875 48.84179688 C266.82562275 62.97192674 267.09716719 78.55227478 267.02929688 94.00585938 C267.03473065 96.10884075 267.04186028 98.21181832 267.05053711 100.31478882 C267.06862411 105.97599674 267.06176384 111.63690996 267.04902077 117.29812241 C267.03881672 123.25319907 267.04830684 129.20825231 267.05456543 135.16333008 C267.06182042 145.15938801 267.05231071 155.15532731 267.03320312 165.15136719 C267.01143865 176.66957133 267.01849153 188.18749214 267.04050875 199.70568943 C267.05872416 209.63660113 267.06119115 219.56742807 267.05075407 229.4983511 C267.0445528 235.41143365 267.04359003 241.32438351 267.05690002 247.23745728 C267.0685477 252.79944594 267.06027152 258.36107316 267.037323 263.92302322 C267.03208318 265.95093819 267.03346735 267.97888416 267.04237366 270.00678635 C267.10233049 285.05884443 266.20576986 300.31242279 258.82421875 313.83007812 C258.48390625 314.47976563 258.14359375 315.12945312 257.79296875 315.79882812 C248.90910662 332.24204931 236.37164394 344.04127901 219.94921875 352.70507812 C219.07716797 353.18654297 219.07716797 353.18654297 218.1875 353.67773438 C204.05737014 360.83148213 188.47702209 361.10302657 173.0234375 361.03515625 C170.92045612 361.04059002 168.81747856 361.04771966 166.71450806 361.05639648 C161.05330013 361.07448349 155.39238691 361.06762321 149.73117447 361.05488014 C143.77609781 361.0446761 137.82104456 361.05416621 131.8659668 361.0604248 C121.86990886 361.06767979 111.87396956 361.05817009 101.87792969 361.0390625 C90.35972554 361.01729802 78.84180473 361.02435091 67.32360744 361.04636812 C57.39269575 361.06458354 47.4618688 361.06705052 37.53094578 361.05661345 C31.61786322 361.05041218 25.70491336 361.0494494 19.7918396 361.0627594 C14.22985094 361.07440707 8.66822371 361.0661309 3.10627365 361.04318237 C1.07835868 361.03794256 -0.94958729 361.03932673 -2.97748947 361.04823303 C-18.02954756 361.10818986 -33.28312592 360.21162924 -46.80078125 352.83007812 C-47.45046875 352.48976563 -48.10015625 352.14945312 -48.76953125 351.79882812 C-65.21275243 342.91496599 -77.01198213 330.37750332 -85.67578125 313.95507812 C-86.15724609 313.08302734 -86.15724609 313.08302734 -86.6484375 312.19335938 C-93.80218525 298.06322951 -94.07372969 282.48288147 -94.00585938 267.02929688 C-94.01129315 264.9263155 -94.01842278 262.82333793 -94.02709961 260.72036743 C-94.04518661 255.05915951 -94.03832634 249.39824629 -94.02558327 243.73703384 C-94.01537922 237.78195718 -94.02486934 231.82690394 -94.03112793 225.87182617 C-94.03838292 215.87576824 -94.02887321 205.87982894 -94.00976562 195.88378906 C-93.98800115 184.36558492 -93.99505403 172.84766411 -94.01707125 161.32946682 C-94.03528666 151.39855512 -94.03775365 141.46772818 -94.02731657 131.53680515 C-94.0211153 125.6237226 -94.02015253 119.71077274 -94.03346252 113.79769897 C-94.0451102 108.23571031 -94.03683402 102.67408309 -94.0138855 97.11213303 C-94.00864568 95.08421806 -94.01002985 93.05627209 -94.01893616 91.0283699 C-94.07906543 75.9330202 -93.17371608 60.68198181 -85.73828125 47.14257812 C-85.22285767 46.16309204 -85.22285767 46.16309204 -84.69702148 45.16381836 C-75.79568496 28.67272918 -63.388129 17.02354111 -46.92578125 8.33007812 C-46.3443335 8.009021 -45.76288574 7.68796387 -45.16381836 7.35717773 C-31.03321795 0.20410409 -15.45383664 -0.06787143 0 0 Z " fill="#F6F1E7" transform="translate(93.48828125,-0.517578125)"/>
<path d="M0 0 C96.21834061 0 96.21834061 0 104.5859375 5.7890625 C105.47152344 6.69785156 105.47152344 6.69785156 106.375 7.625 C106.98085937 8.21539062 107.58671875 8.80578125 108.2109375 9.4140625 C114.92301425 19.11579788 114.57265445 29.28600849 114.51757812 40.61743164 C114.52300522 42.49591106 114.53013116 44.37438622 114.53881836 46.25285339 C114.55698351 51.33132304 114.55001269 56.409466 114.53730202 61.48794103 C114.52714049 66.81418917 114.53657629 72.14041025 114.54284668 77.46665955 C114.55011328 86.40824379 114.54056063 95.34969565 114.52148438 104.29125977 C114.49971093 114.61604193 114.50677449 124.94050816 114.52879 135.26528269 C114.54696418 144.14540906 114.54949264 153.02544054 114.53903532 161.90557951 C114.53281236 167.20259397 114.53193194 172.4994601 114.54518127 177.79646492 C114.55676874 182.77642232 114.54866111 187.7559738 114.52560425 192.73588753 C114.52033291 194.55913622 114.52180384 196.38241931 114.53065491 198.20565414 C114.58544033 210.64101455 113.67455977 219.82084266 104.9375 229.2734375 C78.76921765 252.59275362 35.05095584 236 0 236 C0 158.12 0 80.24 0 0 Z " fill="#0D5451" transform="translate(50,64)"/>
<path d="M0 0 C82.26086957 0 82.26086957 0 111.40234375 28.3359375 C134.8502813 53.10657922 136 80.65310551 136 114 C91.12 114 46.24 114 0 114 C0 76.38 0 38.76 0 0 Z " fill="#103C41" transform="translate(174,186)"/>
<path d="M0 0 C0.7314624 -0.00064453 1.4629248 -0.00128906 2.21655273 -0.00195312 C8.52427914 0.05874452 14.58038452 0.85609936 20.75 2.1875 C19.81121726 9.52984953 18.80395289 16.86079458 17.75 24.1875 C17.48461426 26.03311523 17.48461426 26.03311523 17.21386719 27.91601562 C12.84420964 57.66591208 12.84420964 57.66591208 6.75 70.1875 C6.43047363 70.8484668 6.11094727 71.50943359 5.78173828 72.19042969 C0.80941366 82.2673593 -5.21684723 90.36512966 -13.25 98.1875 C-13.98992187 98.92484375 -14.72984375 99.6621875 -15.4921875 100.421875 C-34.29724341 118.19368608 -57.83056055 123.95993358 -82.98046875 123.4921875 C-91.22161639 123.19691441 -99.19975824 121.91475494 -107.25 120.1875 C-106.29548911 113.18052235 -105.28903762 106.1824299 -104.25 99.1875 C-104.0331958 97.70540039 -104.0331958 97.70540039 -103.81201172 96.19335938 C-99.24411789 65.53839084 -87.09151633 38.99903233 -61.66113281 20.00048828 C-43.55240368 7.031301 -22.30214983 -0.02065253 0 0 Z " fill="#106B63" transform="translate(285.25,56.8125)"/>
<path d="M0 0 C5.54648833 1.98551333 9.38327402 5.76654805 12 11 C12.81262128 17.54093522 11.85964688 21.67994619 8 27 C3.30098915 31.35518079 -0.47091849 32.36239067 -6.71875 32.28125 C-11.47521811 31.69483612 -14.22375322 28.86016535 -17.3125 25.4375 C-20.45685936 20.8956476 -20.66038084 16.35642235 -20 11 C-15.58862696 2.3406381 -9.3934927 -1.10874012 0 0 Z " fill="#C9A54D" transform="translate(312,16)"/>
</svg>
